<svg width="39" height="32" viewBox="0 0 39 32" fill="none" xmlns="http://www.w3.org/2000/svg">
<path fill-rule="evenodd" clip-rule="evenodd" d="M2.0284 11.8515H32.1039C32.4809 11.8515 32.8384 12.0033 33.0984 12.2739L37.8564 17.1381C38.7339 18.0357 38.1099 19.5669 36.8619 19.5669H6.7864C6.4094 19.5669 6.0519 19.4151 5.7919 19.1445L1.0339 14.2803C0.149899 13.3827 0.780399 11.8515 2.0284 11.8515ZM1.0339 5.4033L5.7919 0.539099C6.0584 0.268499 6.4159 0.116699 6.7864 0.116699H36.8554C38.1034 0.116699 38.7339 1.6479 37.8499 2.5455L33.0984 7.4097C32.8319 7.6803 32.4744 7.8321 32.1039 7.8321H2.0284C0.780399 7.8321 0.149899 6.3009 1.0339 5.4033ZM37.8499 26.0151L33.0919 30.8793C32.8254 31.1499 32.4679 31.3017 32.0974 31.3017H2.0284C0.780399 31.3017 0.149899 29.7705 1.0339 28.8729L5.7919 24.0087C6.0584 23.7381 6.4159 23.5863 6.7864 23.5863H36.8554C38.1034 23.5863 38.7339 25.1175 37.8499 26.0151Z" fill="url(#paint0_linear_312_1097)"/>
<defs>
<linearGradient id="paint0_linear_312_1097" x1="2.76419" y1="32.6435" x2="36.6288" y2="-0.70806" gradientUnits="userSpaceOnUse">
<stop stop-color="#CB4EE8"/>
<stop offset="1" stop-color="#10F4B1"/>
</linearGradient>
</defs>
</svg>