<svg width="65" height="66" viewBox="0 0 65 66" fill="none" xmlns="http://www.w3.org/2000/svg">
<mask id="mask0_312_480" style="mask-type:alpha" maskUnits="userSpaceOnUse" x="0" y="0" width="65" height="66">
<path d="M0 0H65V65.9999H0V0Z" fill="white"/>
</mask>
<g mask="url(#mask0_312_480)">
<path fill-rule="evenodd" clip-rule="evenodd" d="M32.5 0C50.4496 0 65 14.7743 65 33C65 51.2243 50.4496 66 32.5 66C14.5504 66 0 51.2243 0 33C0 14.7743 14.5504 0 32.5 0Z" fill="#2775CA"/>
</g>
<path fill-rule="evenodd" clip-rule="evenodd" d="M26.4077 55.9437C26.4077 56.72 25.809 57.161 25.0696 56.9266C15.2432 53.7436 8.11865 44.3877 8.11865 33.3485C8.11865 22.3096 15.2432 12.9534 25.0696 9.77037C25.809 9.53749 26.4077 9.97699 26.4077 10.7532V12.6695C26.4077 13.1862 26.0132 13.7945 25.5283 13.9629C17.7538 16.8616 12.1845 24.4452 12.1845 33.3354C12.1845 42.2255 17.7538 49.8106 25.5283 52.7079C26.0132 52.8894 26.4077 53.4841 26.4077 54.0027V55.9437Z" fill="white"/>
<path fill-rule="evenodd" clip-rule="evenodd" d="M34.5266 48.8131C34.5266 49.3831 34.0679 49.8489 33.5073 49.8489H31.4805C30.9199 49.8489 30.4612 49.3831 30.4612 48.8131V45.5525C26.0257 44.9446 23.8596 42.4205 23.2731 38.9915C23.1708 38.4084 23.6295 37.8781 24.216 37.8781H26.5357C27.0199 37.8781 27.428 38.228 27.5299 38.7189C27.9635 40.7638 29.1231 42.3298 32.6786 42.3298C35.304 42.3298 37.1654 40.8414 37.1654 38.6165C37.1654 36.3898 36.0689 35.549 32.2199 34.9014C26.5357 34.1251 23.8467 32.3776 23.8467 27.8484C23.8467 24.3545 26.447 21.6373 30.4741 21.0545V17.858C30.4741 17.2884 30.9332 16.8223 31.4934 16.8223H33.5202C34.0809 16.8223 34.5395 17.2884 34.5395 17.858V21.1453C37.815 21.7415 39.8924 23.6296 40.5683 26.7613C40.6953 27.3575 40.2367 27.9129 39.638 27.9129H37.4963C37.0376 27.9129 36.6554 27.602 36.5154 27.1494C35.9419 25.1574 34.5395 24.3035 32.105 24.3035C29.416 24.3035 28.0266 25.6231 28.0266 27.4734C28.0266 29.4275 28.8173 30.4104 32.9471 31.0198C38.5286 31.796 41.4096 33.4134 41.4096 38.2415C41.4096 41.9034 38.7328 44.867 34.5395 45.5525V48.8131H34.5266Z" fill="white"/>
<path fill-rule="evenodd" clip-rule="evenodd" d="M39.9306 56.927C39.1919 57.1614 38.5925 56.7204 38.5925 55.9441V54.0294C38.5925 53.4597 38.9367 52.9295 39.4719 52.7345C47.2464 49.8357 52.8157 42.2521 52.8157 33.362C52.8157 24.4719 47.2464 16.8882 39.4719 13.9895C38.9877 13.808 38.5925 13.2132 38.5925 12.6946V10.7799C38.5925 10.0036 39.1919 9.55099 39.9306 9.79549C49.757 12.9804 56.8815 22.3362 56.8815 33.3751C56.8693 44.3877 49.757 53.7309 39.9306 56.927Z" fill="white"/>
</svg>
